<?xml version="1.0" encoding="UTF-8"?>
<svg xmlns="http://www.w3.org/2000/svg" viewBox="0 0 750 500" width="750" height="500">
  <defs>
    <style>
      @page { size: 750px 500px; margin: 0; }
      .title { font-family: -apple-system, BlinkMacSystemFont, "Segoe UI", Roboto, Helvetica, Arial, sans-serif; font-size: 15px; font-weight: bold; fill: #111827; text-anchor: middle; }
      .subtitle { font-family: -apple-system, BlinkMacSystemFont, "Segoe UI", Roboto, Helvetica, Arial, sans-serif; font-size: 11px; fill: #6b7280; text-anchor: middle; }
      .axis-label { font-family: -apple-system, BlinkMacSystemFont, "Segoe UI", Roboto, Helvetica, Arial, sans-serif; font-size: 12px; font-weight: 600; fill: #374151; }
      .tick-label { font-family: -apple-system, BlinkMacSystemFont, "Segoe UI", Roboto, Helvetica, Arial, sans-serif; font-size: 10px; fill: #4b5563; text-anchor: middle; }
      .data-label { font-family: -apple-system, BlinkMacSystemFont, "Segoe UI", Roboto, Helvetica, Arial, sans-serif; font-size: 11px; font-weight: bold; fill: #1f2937; text-anchor: middle; }
      .grid-line { stroke: #e5e7eb; stroke-width: 1; stroke-dasharray: 4,4; }
      .legend-text { font-family: -apple-system, BlinkMacSystemFont, "Segoe UI", Roboto, Helvetica, Arial, sans-serif; font-size: 11px; fill: #374151; }
      .fixture-banner { font-family: -apple-system, BlinkMacSystemFont, "Segoe UI", Roboto, Helvetica, Arial, sans-serif; font-size: 9px; font-weight: bold; fill: #b91c1c; text-anchor: end; }
    </style>
  </defs>
  <rect width="100%" height="100%" fill="#ffffff"/>
  <text x="375" y="28" class="title" text-anchor="middle">Figure 5: Downstream Attribution Accuracy Conditioned on Retrieval Success</text>
  <text x="375" y="48" class="subtitle" text-anchor="middle">Comparison of P(Correct | Hit) vs. P(Correct | Miss) across RAG depths</text>
  <line x1="120" y1="380" x2="660" y2="380" class="grid-line"/>
  <text x="110" y="384" class="tick-label" style="text-anchor: end;">50%</text>
  <line x1="120" y1="322" x2="660" y2="322" class="grid-line"/>
  <text x="110" y="326" class="tick-label" style="text-anchor: end;">60%</text>
  <line x1="120" y1="264" x2="660" y2="264" class="grid-line"/>
  <text x="110" y="268" class="tick-label" style="text-anchor: end;">70%</text>
  <line x1="120" y1="206" x2="660" y2="206" class="grid-line"/>
  <text x="110" y="210" class="tick-label" style="text-anchor: end;">80%</text>
  <line x1="120" y1="148" x2="660" y2="148" class="grid-line"/>
  <text x="110" y="152" class="tick-label" style="text-anchor: end;">90%</text>
  <line x1="120" y1="90" x2="660" y2="90" class="grid-line"/>
  <text x="110" y="94" class="tick-label" style="text-anchor: end;">100%</text>
  <line x1="120" y1="90" x2="120" y2="380" stroke="#374151" stroke-width="1.5"/>
  <line x1="120" y1="380" x2="660" y2="380" stroke="#374151" stroke-width="1.5"/>
  <text x="45" y="235" class="axis-label" transform="rotate(-90 45 235)" text-anchor="middle">Conditional Accuracy (%)</text>
  <rect x="166" y="90.0" width="32" height="290.0" fill="#10b981" rx="3" ry="3"/>
  <text x="182" y="84.0" font-size="10" font-weight="bold" fill="#065f46" text-anchor="middle">100.0%</text>
  <rect x="202" y="228.49493487698987" width="32" height="151.50506512301013" fill="#f59e0b" rx="3" ry="3"/>
  <text x="218" y="222.49493487698987" font-size="10" font-weight="bold" fill="#92400e" text-anchor="middle">76.1%</text>
  <text x="200" y="400" class="tick-label">k=1</text>
  <rect x="306" y="104.74576271186442" width="32" height="275.2542372881356" fill="#10b981" rx="3" ry="3"/>
  <text x="322" y="98.74576271186442" font-size="10" font-weight="bold" fill="#065f46" text-anchor="middle">97.5%</text>
  <rect x="342" y="235.9666666666667" width="32" height="144.0333333333333" fill="#f59e0b" rx="3" ry="3"/>
  <text x="358" y="229.9666666666667" font-size="10" font-weight="bold" fill="#92400e" text-anchor="middle">74.8%</text>
  <text x="340" y="400" class="tick-label">k=3</text>
  <rect x="446" y="106.76300578034687" width="32" height="273.2369942196531" fill="#10b981" rx="3" ry="3"/>
  <text x="462" y="100.76300578034687" font-size="10" font-weight="bold" fill="#065f46" text-anchor="middle">97.1%</text>
  <rect x="482" y="246.44036697247708" width="32" height="133.55963302752292" fill="#f59e0b" rx="3" ry="3"/>
  <text x="498" y="240.44036697247708" font-size="10" font-weight="bold" fill="#92400e" text-anchor="middle">73.0%</text>
  <text x="480" y="400" class="tick-label">k=5</text>
  <rect x="586" y="140.5919003115265" width="32" height="239.4080996884735" fill="#10b981" rx="3" ry="3"/>
  <text x="602" y="134.5919003115265" font-size="10" font-weight="bold" fill="#065f46" text-anchor="middle">91.3%</text>
  <rect x="622" y="263.8539042821159" width="32" height="116.14609571788412" fill="#f59e0b" rx="3" ry="3"/>
  <text x="638" y="257.8539042821159" font-size="10" font-weight="bold" fill="#92400e" text-anchor="middle">70.0%</text>
  <text x="620" y="400" class="tick-label">k=10</text>
  <rect x="250" y="420" width="16" height="16" fill="#10b981" rx="2" ry="2"/>
  <text x="272" y="433" class="legend-text">P(Correct | Retrieval Hit)</text>
  <rect x="430" y="420" width="16" height="16" fill="#f59e0b" rx="2" ry="2"/>
  <text x="452" y="433" class="legend-text">P(Correct | Retrieval Miss)</text>
  <text x="375" y="458" font-size="11" font-weight="bold" fill="#334155" text-anchor="middle">k=10 Subgroups: Retrieved N=321 (91.28%, 293/321) | Missed N=397 (70.03%, 278/397)</text>
  <text x="375" y="478" font-size="10" fill="#64748b" text-anchor="middle">* Disclaimer: Subgroup differences are observational (association-only); retrieval hit/miss is not randomly assigned.</text>
</svg>
